<?xml version="1.0" encoding="UTF-8"?>
<svg id="Layer_2" data-name="Layer 2" xmlns="http://www.w3.org/2000/svg" viewBox="0 0 9.31 16">
  <defs>
    <style>
      .cls-1 {
        fill: #fff;
        stroke-width: 0px;
      }
    </style>
  </defs>
  <g id="Layer_1-2" data-name="Layer 1">
    <path class="cls-1" d="M5.83,3.54c-.07-.02-.14-.03-.21-.05v-1.2s0-1.62,1.4-2.29h-3.34v3.49c-.07.01-.14.03-.21.05-2.05.53-3.48,2.39-3.48,4.5s1.43,3.97,3.48,4.5c.07.02.14.03.21.05v1.12s0,1.62-1.4,2.29h3.34v-3.41c.07-.01.14-.03.21-.05,2.05-.54,3.48-2.39,3.48-4.5s-1.43-3.97-3.48-4.5ZM1.64,8.04c0-1.3.83-2.44,2.04-2.85v5.71c-1.21-.41-2.04-1.56-2.04-2.85ZM5.62,10.9v-5.71c1.21.41,2.04,1.56,2.04,2.85s-.83,2.44-2.04,2.85Z"/>
  </g>
</svg>